<?xml version="1.0" encoding="UTF-8" standalone="no"?>
<!-- Created with Inkscape (http://www.inkscape.org/) -->

<svg
   xmlns:dc="http://purl.org/dc/elements/1.1/"
   xmlns:cc="http://creativecommons.org/ns#"
   xmlns:rdf="http://www.w3.org/1999/02/22-rdf-syntax-ns#"
   xmlns:svg="http://www.w3.org/2000/svg"
   xmlns="http://www.w3.org/2000/svg"
   xmlns:xlink="http://www.w3.org/1999/xlink"
   xmlns:sodipodi="http://sodipodi.sourceforge.net/DTD/sodipodi-0.dtd"
   xmlns:inkscape="http://www.inkscape.org/namespaces/inkscape"
   width="210mm"
   height="297mm"
   viewBox="0 0 210 297"
   version="1.1"
   id="svg8"
   inkscape:version="0.92.3 (2405546, 2018-03-11)"
   sodipodi:docname="resources.svg">
  <defs
     id="defs2">
    <inkscape:perspective
       sodipodi:type="inkscape:persp3d"
       inkscape:vp_x="109.7008 : 0 : 0"
       inkscape:vp_y="0 : 1000 : 0"
       inkscape:vp_z="116.08294 : 0 : 0"
       inkscape:persp3d-origin="105 : 99 : 1"
       id="perspective915" />
    <marker
       inkscape:stockid="Arrow1Lstart"
       orient="auto"
       refY="0.0"
       refX="0.0"
       id="marker1901"
       style="overflow:visible"
       inkscape:isstock="true">
      <path
         id="path1899"
         d="M 0.0,0.0 L 5.0,-5.0 L -12.5,0.0 L 5.0,5.0 L 0.0,0.0 z "
         style="fill-rule:evenodd;stroke:#c87137;stroke-width:1pt;stroke-opacity:1;fill:#c87137;fill-opacity:1"
         transform="scale(0.8) translate(12.5,0)" />
    </marker>
    <marker
       inkscape:stockid="Arrow1Lstart"
       orient="auto"
       refY="0.0"
       refX="0.0"
       id="marker1891"
       style="overflow:visible"
       inkscape:isstock="true">
      <path
         id="path1889"
         d="M 0.0,0.0 L 5.0,-5.0 L -12.5,0.0 L 5.0,5.0 L 0.0,0.0 z "
         style="fill-rule:evenodd;stroke:#c87137;stroke-width:1pt;stroke-opacity:1;fill:#c87137;fill-opacity:1"
         transform="scale(0.8) translate(12.5,0)" />
    </marker>
    <marker
       inkscape:stockid="Arrow1Mstart"
       orient="auto"
       refY="0.0"
       refX="0.0"
       id="Arrow1Mstart"
       style="overflow:visible"
       inkscape:isstock="true">
      <path
         id="path1028"
         d="M 0.0,0.0 L 5.0,-5.0 L -12.5,0.0 L 5.0,5.0 L 0.0,0.0 z "
         style="fill-rule:evenodd;stroke:#c87137;stroke-width:1pt;stroke-opacity:1;fill:#c87137;fill-opacity:1"
         transform="scale(0.4) translate(10,0)" />
    </marker>
    <marker
       inkscape:stockid="Arrow1Lend"
       orient="auto"
       refY="0.0"
       refX="0.0"
       id="Arrow1Lend"
       style="overflow:visible;"
       inkscape:isstock="true">
      <path
         id="path1025"
         d="M 0.0,0.0 L 5.0,-5.0 L -12.5,0.0 L 5.0,5.0 L 0.0,0.0 z "
         style="fill-rule:evenodd;stroke:#c87137;stroke-width:1pt;stroke-opacity:1;fill:#c87137;fill-opacity:1"
         transform="scale(0.8) rotate(180) translate(12.5,0)" />
    </marker>
    <marker
       inkscape:stockid="Arrow1Lstart"
       orient="auto"
       refY="0.0"
       refX="0.0"
       id="Arrow1Lstart"
       style="overflow:visible"
       inkscape:isstock="true">
      <path
         id="path1022"
         d="M 0.0,0.0 L 5.0,-5.0 L -12.5,0.0 L 5.0,5.0 L 0.0,0.0 z "
         style="fill-rule:evenodd;stroke:#c87137;stroke-width:1pt;stroke-opacity:1;fill:#c87137;fill-opacity:1"
         transform="scale(0.8) translate(12.5,0)" />
    </marker>
    <marker
       inkscape:stockid="Arrow2Send"
       orient="auto"
       refY="0.0"
       refX="0.0"
       id="Arrow2Send"
       style="overflow:visible;"
       inkscape:isstock="true">
      <path
         id="path1055"
         style="fill-rule:evenodd;stroke-width:0.625;stroke-linejoin:round;stroke:#c87137;stroke-opacity:1;fill:#c87137;fill-opacity:1"
         d="M 8.7185878,4.0337352 L -2.2072895,0.016013256 L 8.7185884,-4.0017078 C 6.9730900,-1.6296469 6.9831476,1.6157441 8.7185878,4.0337352 z "
         transform="scale(0.3) rotate(180) translate(-2.3,0)" />
    </marker>
    <marker
       inkscape:stockid="Arrow2Mend"
       orient="auto"
       refY="0.0"
       refX="0.0"
       id="Arrow2Mend"
       style="overflow:visible;"
       inkscape:isstock="true">
      <path
         id="path1049"
         style="fill-rule:evenodd;stroke-width:0.625;stroke-linejoin:round;stroke:#c87137;stroke-opacity:1;fill:#c87137;fill-opacity:1"
         d="M 8.7185878,4.0337352 L -2.2072895,0.016013256 L 8.7185884,-4.0017078 C 6.9730900,-1.6296469 6.9831476,1.6157441 8.7185878,4.0337352 z "
         transform="scale(0.6) rotate(180) translate(0,0)" />
    </marker>
    <linearGradient
       inkscape:collect="always"
       id="linearGradient983">
      <stop
         style="stop-color:#ffffff;stop-opacity:1"
         offset="0"
         id="stop979" />
      <stop
         style="stop-color:#ffffff;stop-opacity:0"
         offset="1"
         id="stop981" />
    </linearGradient>
    <radialGradient
       inkscape:collect="always"
       xlink:href="#linearGradient983"
       id="radialGradient985"
       cx="114.87956"
       cy="104.77883"
       fx="114.87956"
       fy="104.77883"
       r="7.5549164"
       gradientUnits="userSpaceOnUse"
       gradientTransform="matrix(0.5983341,0.67489707,-0.40685747,0.36070198,90.15593,-10.759874)" />
    <clipPath
       clipPathUnits="userSpaceOnUse"
       id="clipPath1844">
      <rect
         style="opacity:1;fill:none;fill-opacity:1;fill-rule:evenodd;stroke:#806600;stroke-width:0.99999994;stroke-linecap:round;stroke-linejoin:round;stroke-miterlimit:4;stroke-dasharray:none;stroke-dashoffset:0;stroke-opacity:1"
         id="rect1846"
         width="45.970356"
         height="65.21376"
         x="98.889732"
         y="180.2032" />
    </clipPath>
    <filter
       inkscape:collect="always"
       style="color-interpolation-filters:sRGB"
       id="filter1004"
       x="-0.017995177"
       width="1.0359904"
       y="-0.059194987"
       height="1.11839">
      <feGaussianBlur
         inkscape:collect="always"
         stdDeviation="0.34803372"
         id="feGaussianBlur1006" />
    </filter>
  </defs>
  <sodipodi:namedview
     id="base"
     pagecolor="#ffffff"
     bordercolor="#666666"
     borderopacity="1.0"
     inkscape:pageopacity="0.0"
     inkscape:pageshadow="2"
     inkscape:zoom="0.70598665"
     inkscape:cx="891.40254"
     inkscape:cy="427.331"
     inkscape:document-units="mm"
     inkscape:current-layer="layer3"
     showgrid="false"
     inkscape:window-width="1680"
     inkscape:window-height="996"
     inkscape:window-x="0"
     inkscape:window-y="25"
     inkscape:window-maximized="1"
     inkscape:snap-global="false" />
  <metadata
     id="metadata5">
    <rdf:RDF>
      <cc:Work
         rdf:about="">
        <dc:format>image/svg+xml</dc:format>
        <dc:type
           rdf:resource="http://purl.org/dc/dcmitype/StillImage" />
        <dc:title />
      </cc:Work>
    </rdf:RDF>
  </metadata>
  <g
     inkscape:label="Layer 1"
     inkscape:groupmode="layer"
     id="layer1">
    <flowRoot
       xml:space="preserve"
       id="flowRoot815"
       style="font-style:normal;font-variant:normal;font-weight:normal;font-stretch:normal;font-size:13.33333302px;line-height:1.25;font-family:sans-serif;-inkscape-font-specification:'sans-serif, Normal';font-variant-ligatures:normal;font-variant-caps:normal;font-variant-numeric:normal;font-feature-settings:normal;text-align:start;letter-spacing:0px;word-spacing:0px;writing-mode:lr-tb;text-anchor:start;fill:#000000;fill-opacity:1;stroke:none"
       inkscape:export-filename="/tmp/buttonReleased.png"
       inkscape:export-xdpi="55.080002"
       inkscape:export-ydpi="55.080002"><flowRegion
         id="flowRegion817"><rect
           id="rect819"
           width="125.71429"
           height="128.57143"
           x="120"
           y="333.94824" /></flowRegion><flowPara
         id="flowPara821" /></flowRoot>    <circle
       style="opacity:1;fill:#333333;fill-opacity:1;fill-rule:evenodd;stroke:none;stroke-width:0.69999999;stroke-linecap:round;stroke-linejoin:round;stroke-miterlimit:4;stroke-dasharray:2.79999989, 2.79999989;stroke-dashoffset:0;stroke-opacity:1"
       id="path823"
       cx="70.681549"
       cy="107.63393"
       r="23.056549"
       inkscape:export-filename="/tmp/buttonReleased.png"
       inkscape:export-xdpi="55.080002"
       inkscape:export-ydpi="55.080002" />
    <circle
       inkscape:export-ydpi="55.080002"
       inkscape:export-xdpi="55.080002"
       inkscape:export-filename="/tmp/ledOn.png"
       r="11.563959"
       cy="106.83212"
       cx="114.51375"
       id="circle969"
       style="opacity:1;fill:#333333;fill-opacity:1;fill-rule:evenodd;stroke:none;stroke-width:0.69999999;stroke-linecap:round;stroke-linejoin:round;stroke-miterlimit:4;stroke-dasharray:2.79999989, 2.79999989;stroke-dashoffset:0;stroke-opacity:1" />
  </g>
  <g
     inkscape:groupmode="layer"
     id="layer2"
     inkscape:label="Down"
     style="display:inline">
    <rect
       style="opacity:0.99;fill:#502d16;fill-opacity:1;fill-rule:evenodd;stroke:none;stroke-width:0.70000005;stroke-linecap:round;stroke-linejoin:round;stroke-miterlimit:4;stroke-dasharray:2.79999997, 2.79999997000000000;stroke-dashoffset:0;stroke-opacity:1"
       id="rect1010"
       width="59.180595"
       height="52.955528"
       x="47.238384"
       y="138.80528"
       inkscape:export-xdpi="55.114067"
       inkscape:export-ydpi="55.114067" />
    <path
       inkscape:connector-curvature="0"
       id="path850"
       d="m 84.46525,117.94682 c -6.299759,9.19606 -21.407464,9.13115 -27.648567,-0.0878 -6.916655,-8.73346 -2.408615,-23.154244 8.254575,-26.387735 10.389754,-4.029718 22.831576,4.540306 22.769778,15.683995 0.133539,3.8427 -1.07677,7.71019 -3.375786,10.79152 z"
       style="opacity:1;fill:#0066ff;fill-opacity:1;fill-rule:evenodd;stroke:none;stroke-width:0.69999999;stroke-linecap:round;stroke-linejoin:round;stroke-miterlimit:4;stroke-dasharray:2.7999999, 2.79999989999999999;stroke-dashoffset:0;stroke-opacity:1" />
    <circle
       style="opacity:1;fill:#800000;fill-opacity:1;fill-rule:evenodd;stroke:none;stroke-width:0.70000005;stroke-linecap:round;stroke-linejoin:round;stroke-miterlimit:4;stroke-dasharray:2.79999987, 2.79999987000000017;stroke-dashoffset:0;stroke-opacity:1"
       id="circle971"
       cx="114.51375"
       cy="106.83212"
       r="7.5549164"
       inkscape:export-filename="/tmp/ledOn.png"
       inkscape:export-xdpi="55.080002"
       inkscape:export-ydpi="55.080002" />
    <circle
       inkscape:export-ydpi="55.080002"
       inkscape:export-xdpi="55.080002"
       inkscape:export-filename="/tmp/ledOn.png"
       r="7.5549164"
       cy="106.83212"
       cx="114.51375"
       id="circle990"
       style="display:inline;opacity:0.5;fill:url(#radialGradient985);fill-opacity:1;fill-rule:evenodd;stroke:none;stroke-width:0.70000005;stroke-linecap:round;stroke-linejoin:round;stroke-miterlimit:4;stroke-dasharray:2.79999987, 2.79999987000000017;stroke-dashoffset:0;stroke-opacity:1" />
    <text
       xml:space="preserve"
       style="font-style:normal;font-variant:normal;font-weight:normal;font-stretch:normal;font-size:7.7718401px;line-height:1.25;font-family:sans-serif;-inkscape-font-specification:'sans-serif, Normal';font-variant-ligatures:normal;font-variant-caps:normal;font-variant-numeric:normal;font-feature-settings:normal;text-align:center;letter-spacing:0px;word-spacing:0px;writing-mode:lr-tb;text-anchor:middle;fill:#c87137;fill-opacity:1;stroke:none;stroke-width:0.26458332;opacity:0.99;"
       x="67.466484"
       y="148.79767"
       id="text1006"
       inkscape:export-xdpi="55.114067"
       inkscape:export-ydpi="55.114067"><tspan
         sodipodi:role="line"
         id="tspan1004"
         x="67.466484"
         y="148.79767"
         style="font-style:normal;font-variant:normal;font-weight:normal;font-stretch:normal;font-size:7.7718401px;font-family:'Arial Black';-inkscape-font-specification:'Arial Black, Normal';font-variant-ligatures:normal;font-variant-caps:normal;font-variant-numeric:normal;font-feature-settings:normal;text-align:center;writing-mode:lr-tb;text-anchor:middle;fill:#c87137;stroke-width:0.26458332;">INSERT</tspan><tspan
         sodipodi:role="line"
         x="67.466484"
         y="158.60428"
         style="font-style:normal;font-variant:normal;font-weight:normal;font-stretch:normal;font-size:7.7718401px;font-family:'Arial Black';-inkscape-font-specification:'Arial Black, Normal';font-variant-ligatures:normal;font-variant-caps:normal;font-variant-numeric:normal;font-feature-settings:normal;text-align:center;writing-mode:lr-tb;text-anchor:middle;fill:#c87137;stroke-width:0.26458332;"
         id="tspan1008">COIN</tspan><tspan
         sodipodi:role="line"
         x="67.466484"
         y="168.41089"
         style="font-style:normal;font-variant:normal;font-weight:normal;font-stretch:normal;font-size:7.7718401px;font-family:'Arial Black';-inkscape-font-specification:'Arial Black, Normal';font-variant-ligatures:normal;font-variant-caps:normal;font-variant-numeric:normal;font-feature-settings:normal;text-align:center;writing-mode:lr-tb;text-anchor:middle;fill:#c87137;stroke-width:0.26458332;"
         id="tspan1012">HERE</tspan></text>
    <text
       xml:space="preserve"
       style="font-style:normal;font-variant:normal;font-weight:normal;font-stretch:normal;font-size:3.52777767px;line-height:1.25;font-family:sans-serif;-inkscape-font-specification:'sans-serif, Normal';font-variant-ligatures:normal;font-variant-caps:normal;font-variant-numeric:normal;font-feature-settings:normal;text-align:start;letter-spacing:0px;word-spacing:0px;writing-mode:lr-tb;text-anchor:start;fill:#000000;fill-opacity:1;stroke:none;stroke-width:0.26458332"
       x="104.41592"
       y="71.348206"
       id="text1016"><tspan
         sodipodi:role="line"
         x="104.41592"
         y="71.348206"
         style="stroke-width:0.26458332"
         id="tspan1861">55 dpi für</tspan><tspan
         sodipodi:role="line"
         x="104.41592"
         y="75.757927"
         style="stroke-width:0.26458332"
         id="tspan1018">den Export!</tspan></text>
    <path
       style="fill:#c87137;stroke:#c87137;stroke-width:5;stroke-linecap:butt;stroke-linejoin:miter;stroke-miterlimit:4;stroke-dasharray:none;stroke-opacity:1;marker-end:url(#Arrow2Send);marker-mid:url(#marker1901);opacity:0.99"
       d="M 51.583019,180.47047 H 80.715395"
       id="path1020"
       inkscape:connector-curvature="0"
       inkscape:export-xdpi="55.114067"
       inkscape:export-ydpi="55.114067" />
    <rect
       style="opacity:0.99;fill:#000000;fill-opacity:1;fill-rule:evenodd;stroke:#c87137;stroke-width:1;stroke-linecap:round;stroke-linejoin:round;stroke-miterlimit:4;stroke-dasharray:none;stroke-dashoffset:0;stroke-opacity:1"
       id="rect1582"
       width="6.7197266"
       height="40.624966"
       x="91.387192"
       y="144.97057"
       ry="0.66817737"
       rx="1.4699824"
       inkscape:export-xdpi="55.114067"
       inkscape:export-ydpi="55.114067" />
    <ellipse
       r="19.777945"
       cy="206.93016"
       cx="146.4637"
       id="ellipse1598"
       style="opacity:1;fill:#ffcc00;fill-opacity:1;fill-rule:evenodd;stroke:#806600;stroke-width:1.00000003;stroke-linecap:round;stroke-linejoin:round;stroke-miterlimit:4;stroke-dasharray:none;stroke-dashoffset:0;stroke-opacity:1" />
    <ellipse
       r="19.777945"
       style="opacity:1;fill:#ffcc00;fill-opacity:1;fill-rule:evenodd;stroke:#806600;stroke-width:1;stroke-linecap:round;stroke-linejoin:round;stroke-miterlimit:4;stroke-dasharray:none;stroke-dashoffset:0;stroke-opacity:1"
       id="ellipse1629"
       cx="142.20122"
       cy="261.83167" />
    <ellipse
       r="19.777945"
       style="opacity:1;fill:#ffcc00;fill-opacity:1;fill-rule:evenodd;stroke:#806600;stroke-width:1;stroke-linecap:round;stroke-linejoin:round;stroke-miterlimit:4;stroke-dasharray:none;stroke-dashoffset:0;stroke-opacity:1"
       id="ellipse1631"
       cx="142.20122"
       cy="261.83167" />
    <rect
       style="opacity:0.98999999;fill:none;fill-opacity:1;fill-rule:evenodd;stroke:#803300;stroke-width:5.29166667;stroke-linecap:round;stroke-linejoin:miter;stroke-miterlimit:4;stroke-dasharray:none;stroke-dashoffset:0;stroke-opacity:1"
       id="rect987"
       width="141.42889"
       height="42.024441"
       x="35.601574"
       y="239.44519"
       inkscape:export-xdpi="54.755142"
       inkscape:export-ydpi="54.755142" />
    <path
       style="fill:#4d4d4d;stroke:#000000;stroke-width:0.26458332px;stroke-linecap:butt;stroke-linejoin:miter;stroke-opacity:1"
       d="m 58.990764,239.29036 118.039706,0.15483 -0.0919,27.95622 -117.947846,-0.0425 z"
       id="path997"
       inkscape:connector-curvature="0"
       inkscape:export-xdpi="54.755142"
       inkscape:export-ydpi="54.755142" />
    <path
       style="fill:#333333;stroke:#000000;stroke-width:0.26458332px;stroke-linecap:butt;stroke-linejoin:miter;stroke-opacity:1"
       d="m 58.990764,267.35891 v -28.06855 l -23.38919,0.15483 v 42.02445 z"
       id="path995"
       inkscape:connector-curvature="0"
       sodipodi:nodetypes="ccccc"
       inkscape:export-xdpi="54.755142"
       inkscape:export-ydpi="54.755142" />
    <path
       style="fill:#666666;stroke:#000000;stroke-width:0.26458332px;stroke-linecap:butt;stroke-linejoin:miter;stroke-opacity:1"
       d="m 58.990724,267.35891 117.947846,0.0425 0.0919,14.06823 -141.428936,-1e-5 z"
       id="path993"
       inkscape:connector-curvature="0"
       sodipodi:nodetypes="ccccc"
       inkscape:export-xdpi="54.755142"
       inkscape:export-ydpi="54.755142" />
    <path
       style="fill:#333333;stroke:none;stroke-width:0.26458332px;stroke-linecap:butt;stroke-linejoin:miter;stroke-opacity:1;opacity:0.157;filter:url(#filter1004)"
       d="m 35.601534,281.46962 46.416933,-14.01747 -23.027703,-0.0932 z"
       id="path952"
       inkscape:connector-curvature="0"
       inkscape:export-xdpi="54.755142"
       inkscape:export-ydpi="54.755142" />
    <g
       id="g1027"
       transform="matrix(0.68049603,0,0,0.67377213,52.205724,68.736874)"
       style="stroke-width:1.4768306"
       inkscape:export-xdpi="54.718037"
       inkscape:export-ydpi="54.718037">
      <path
         sodipodi:nodetypes="cccccc"
         style="opacity:0.15700001;fill:#333333;stroke:none;stroke-width:0.39074475px;stroke-linecap:butt;stroke-linejoin:miter;stroke-opacity:1;filter:url(#filter1004)"
         d="m 123.49145,226.90668 23.60617,-7.10951 9.60305,-5.92514 h -21.73026 l -23.60617,7.10951 z"
         id="path1008"
         inkscape:connector-curvature="0" />
      <g
         transform="translate(47.43556,-49.15808)"
         id="g950"
         style="stroke-width:1.4768306">
        <path
           style="fill:#8d5fd3;stroke:#2d1650;stroke-width:0.39074475px;stroke-linecap:butt;stroke-linejoin:miter;stroke-opacity:1"
           d="m 54.32564,254.8645 9.60304,-5.92514 h 21.73025 l -9.60304,5.92514 z"
           id="path935"
           inkscape:connector-curvature="0" />
        <rect
           y="254.8645"
           x="54.325638"
           height="21.200251"
           width="21.730257"
           id="rect925"
           style="opacity:0.98999999;fill:#7137c8;fill-opacity:1;fill-rule:evenodd;stroke:#2d1650;stroke-width:0.39136007;stroke-linecap:round;stroke-linejoin:miter;stroke-miterlimit:4;stroke-dasharray:none;stroke-dashoffset:0;stroke-opacity:1" />
        <path
           style="fill:#442178;stroke:#2d1650;stroke-width:0.39074475px;stroke-linecap:butt;stroke-linejoin:miter;stroke-opacity:1"
           d="m 76.05589,254.8645 9.60305,-5.92514 v 21.20025 l -9.60305,5.92515 z"
           id="path937"
           inkscape:connector-curvature="0" />
      </g>
    </g>
  </g>
  <g
     inkscape:groupmode="layer"
     id="layer3"
     inkscape:label="Up"
     style="display:inline">
    <path
       inkscape:connector-curvature="0"
       id="path855"
       d="m 84.465252,117.94682 c -6.29976,9.19606 -21.407466,9.13115 -27.648569,-0.0878 -6.916655,-8.73346 -2.408615,-23.15425 8.254575,-26.387739 10.389754,-4.029718 22.831574,4.540309 22.769774,15.683999 0.13354,3.8427 -1.07677,7.71019 -3.37578,10.79152 z"
       style="opacity:1;fill:#0044aa;fill-opacity:1;fill-rule:evenodd;stroke:none;stroke-width:0.69999999;stroke-linecap:round;stroke-linejoin:round;stroke-miterlimit:4;stroke-dasharray:2.7999999, 2.7999999;stroke-dashoffset:0;stroke-opacity:1" />
    <path
       style="opacity:1;fill:#0066ff;fill-opacity:1;fill-rule:evenodd;stroke:none;stroke-width:0.69999999;stroke-linecap:round;stroke-linejoin:round;stroke-miterlimit:4;stroke-dasharray:2.7999999, 2.7999999;stroke-dashoffset:0;stroke-opacity:1"
       d="m 84.891995,112.50964 c -6.299765,9.19606 -21.407471,9.13115 -27.648574,-0.0878 -6.916655,-8.73346 -2.408615,-23.154261 8.254575,-26.387751 10.389754,-4.029718 22.831579,4.54031 22.769779,15.684011 0.13354,3.8427 -1.07677,7.71019 -3.37578,10.79152 z"
       id="circle841"
       inkscape:connector-curvature="0" />
    <circle
       inkscape:export-ydpi="55.080002"
       inkscape:export-xdpi="55.080002"
       inkscape:export-filename="/tmp/buttonReleased.png"
       r="7.5549164"
       cy="106.83212"
       cx="114.51375"
       id="circle974"
       style="display:inline;opacity:1;fill:#ff0000;fill-opacity:1;fill-rule:evenodd;stroke:none;stroke-width:0.70000005;stroke-linecap:round;stroke-linejoin:round;stroke-miterlimit:4;stroke-dasharray:2.79999987, 2.79999987;stroke-dashoffset:0;stroke-opacity:1" />
    <circle
       style="display:inline;opacity:1;fill:url(#radialGradient985);fill-opacity:1;fill-rule:evenodd;stroke:none;stroke-width:0.70000005;stroke-linecap:round;stroke-linejoin:round;stroke-miterlimit:4;stroke-dasharray:2.79999987, 2.79999987;stroke-dashoffset:0;stroke-opacity:1"
       id="circle977"
       cx="114.51375"
       cy="106.83212"
       r="7.5549164"
       inkscape:export-filename="/tmp/buttonReleased.png"
       inkscape:export-xdpi="55.080002"
       inkscape:export-ydpi="55.080002" />
    <g
       id="g1672"
       transform="matrix(0.87344668,0,0,0.87344668,-29.107815,-20.972858)"
       clip-path="url(#clipPath1844)"
       style="display:inline;stroke-width:1.14488959">
      <ellipse
         ry="19.777945"
         rx="14.326331"
         style="opacity:1;fill:#806600;fill-opacity:1;fill-rule:evenodd;stroke:#806600;stroke-width:1.14488959;stroke-linecap:round;stroke-linejoin:round;stroke-miterlimit:4;stroke-dasharray:none;stroke-dashoffset:0;stroke-opacity:1"
         id="circle1602"
         cx="135.39943"
         cy="212.81009" />
      <ellipse
         ry="19.777945"
         rx="14.326331"
         cy="212.87152"
         cx="137.48277"
         id="path1590"
         style="opacity:1;fill:#ffcc00;fill-opacity:1;fill-rule:evenodd;stroke:#806600;stroke-width:1.14488959;stroke-linecap:round;stroke-linejoin:round;stroke-miterlimit:4;stroke-dasharray:none;stroke-dashoffset:0;stroke-opacity:1" />
      <g
         style="stroke-width:1.36249936"
         transform="matrix(0.70608107,0,0,1,38.545508,-47.306706)"
         id="g1658">
        <circle
           r="15.635267"
           style="opacity:1;fill:#806600;fill-opacity:1;fill-rule:evenodd;stroke:#806600;stroke-width:1.36249936;stroke-linecap:round;stroke-linejoin:round;stroke-miterlimit:4;stroke-dasharray:none;stroke-dashoffset:0;stroke-opacity:1"
           id="circle1633"
           cx="140.46397"
           cy="260.36166" />
        <circle
           cy="260.36166"
           cx="140.46397"
           id="circle1635"
           style="opacity:1;fill:#ffcc00;fill-opacity:1;fill-rule:evenodd;stroke:#806600;stroke-width:1.36249936;stroke-linecap:round;stroke-linejoin:round;stroke-miterlimit:4;stroke-dasharray:none;stroke-dashoffset:0;stroke-opacity:1"
           r="11.49259" />
        <circle
           cy="260.36166"
           cx="140.46397"
           id="circle1600"
           style="opacity:1;fill:#ffcc00;fill-opacity:1;fill-rule:evenodd;stroke:#806600;stroke-width:1.36249936;stroke-linecap:round;stroke-linejoin:round;stroke-miterlimit:4;stroke-dasharray:none;stroke-dashoffset:0;stroke-opacity:1"
           r="19.777945" />
        <text
           xml:space="preserve"
           style="font-style:normal;font-variant:normal;font-weight:normal;font-stretch:normal;font-size:3.52777767px;line-height:1.25;font-family:'Arial Black';-inkscape-font-specification:'Arial Black, Normal';font-variant-ligatures:normal;font-variant-caps:normal;font-variant-numeric:normal;font-feature-settings:normal;text-align:start;letter-spacing:0px;word-spacing:0px;writing-mode:lr-tb;text-anchor:start;fill:#806600;fill-opacity:1;stroke:none;stroke-width:0.36049461"
           id="text1606"><textPath
             style="stroke-width:0.36049461"
             xlink:href="#circle1633"
             startOffset="50%"
             id="textPath1639"><tspan
   id="tspan1614"
   style="font-style:normal;font-variant:normal;font-weight:normal;font-stretch:normal;font-size:3.52777767px;font-family:'Arial Black';-inkscape-font-specification:'Arial Black, Normal';font-variant-ligatures:normal;font-variant-caps:normal;font-variant-numeric:normal;font-feature-settings:normal;text-align:start;writing-mode:lr-tb;text-anchor:start;fill:#806600;stroke-width:0.36049461">LehrLernLabor</tspan><tspan
   id="tspan1622"
   style="font-style:normal;font-variant:normal;font-weight:normal;font-stretch:normal;font-size:3.52777767px;font-family:'Arial Black';-inkscape-font-specification:'Arial Black, Normal';font-variant-ligatures:normal;font-variant-caps:normal;font-variant-numeric:normal;font-feature-settings:normal;text-align:start;writing-mode:lr-tb;text-anchor:start;fill:#806600;stroke-width:0.36049461" /></textPath></text>
        <text
           xml:space="preserve"
           style="font-style:italic;font-variant:normal;font-weight:bold;font-stretch:normal;font-size:31.02449608px;line-height:1.25;font-family:sans-serif;-inkscape-font-specification:'sans-serif, Bold Italic';font-variant-ligatures:normal;font-variant-caps:normal;font-variant-numeric:normal;font-feature-settings:normal;text-align:start;letter-spacing:0px;word-spacing:0px;writing-mode:lr-tb;text-anchor:start;fill:#806600;fill-opacity:1;stroke:none;stroke-width:0.36049461"
           x="130.98328"
           y="271.87677"
           id="text1647"><tspan
             sodipodi:role="line"
             id="tspan1645"
             x="130.98328"
             y="271.87677"
             style="font-style:italic;font-variant:normal;font-weight:bold;font-stretch:normal;font-size:31.02449608px;font-family:sans-serif;-inkscape-font-specification:'sans-serif, Bold Italic';font-variant-ligatures:normal;font-variant-caps:normal;font-variant-numeric:normal;font-feature-settings:normal;text-align:start;writing-mode:lr-tb;text-anchor:start;fill:#806600;stroke-width:0.36049461">1</tspan></text>
      </g>
    </g>
    <g
       id="g1091"
       transform="matrix(0.76944785,0,0,0.76048734,33.945911,46.908316)"
       style="stroke-width:1.30726731"
       inkscape:export-xdpi="55.280754"
       inkscape:export-ydpi="55.280754">
      <path
         style="opacity:1;fill:#806600;fill-opacity:1;fill-rule:evenodd;stroke:#806600;stroke-width:1.30726731;stroke-linecap:round;stroke-linejoin:miter;stroke-miterlimit:4;stroke-dasharray:none;stroke-dashoffset:0;stroke-opacity:1"
         id="path1069"
         sodipodi:type="arc"
         sodipodi:cx="-3.9123621"
         sodipodi:cy="221.30923"
         sodipodi:rx="16.677309"
         sodipodi:ry="6.6153269"
         sodipodi:start="0.93333925"
         sodipodi:end="0.93179289"
         sodipodi:open="true"
         d="m 6.0132025,226.62539 a 16.677309,6.6153269 0 0 1 -23.3238085,-1.37696 16.677309,6.6153269 0 0 1 3.46232,-9.2523 16.677309,6.6153269 0 0 1 23.3264856,1.3698 16.677309,6.6153269 0 0 1 -3.4442845,9.25336" />
      <path
         d="m 6.0132025,225.49912 a 16.677309,6.6153269 0 0 1 -23.3238085,-1.37696 16.677309,6.6153269 0 0 1 3.46232,-9.2523 16.677309,6.6153269 0 0 1 23.3264856,1.36981 16.677309,6.6153269 0 0 1 -3.4442845,9.25336"
         sodipodi:open="true"
         sodipodi:end="0.93179289"
         sodipodi:start="0.93333925"
         sodipodi:ry="6.6153269"
         sodipodi:rx="16.677309"
         sodipodi:cy="220.18297"
         sodipodi:cx="-3.9123621"
         sodipodi:type="arc"
         id="path1067"
         style="opacity:1;fill:#ffcc00;fill-opacity:1;fill-rule:evenodd;stroke:#806600;stroke-width:1.30726731;stroke-linecap:round;stroke-linejoin:miter;stroke-miterlimit:4;stroke-dasharray:none;stroke-dashoffset:0;stroke-opacity:1" />
      <g
         id="g1063"
         transform="matrix(0.00601079,-0.34638153,0.87340519,0.00478147,-231.85319,266.98741)"
         style="stroke-width:2.37661338">
        <text
           id="text1057"
           style="font-style:normal;font-variant:normal;font-weight:normal;font-stretch:normal;font-size:3.52777767px;line-height:1.25;font-family:'Arial Black';-inkscape-font-specification:'Arial Black, Normal';font-variant-ligatures:normal;font-variant-caps:normal;font-variant-numeric:normal;font-feature-settings:normal;text-align:start;letter-spacing:0px;word-spacing:0px;writing-mode:lr-tb;text-anchor:start;fill:#806600;fill-opacity:1;stroke:none;stroke-width:0.62881225"
           xml:space="preserve"><textPath
             id="textPath1055"
             startOffset="50%"
             xlink:href="#circle1633"
             style="stroke-width:0.62881225"><tspan
   style="font-style:normal;font-variant:normal;font-weight:normal;font-stretch:normal;font-size:3.52777767px;font-family:'Arial Black';-inkscape-font-specification:'Arial Black, Normal';font-variant-ligatures:normal;font-variant-caps:normal;font-variant-numeric:normal;font-feature-settings:normal;text-align:start;writing-mode:lr-tb;text-anchor:start;fill:#806600;stroke-width:0.62881225"
   id="tspan1051">LehrLernLabor</tspan><tspan
   style="font-style:normal;font-variant:normal;font-weight:normal;font-stretch:normal;font-size:3.52777767px;font-family:'Arial Black';-inkscape-font-specification:'Arial Black, Normal';font-variant-ligatures:normal;font-variant-caps:normal;font-variant-numeric:normal;font-feature-settings:normal;text-align:start;writing-mode:lr-tb;text-anchor:start;fill:#806600;stroke-width:0.62881225"
   id="tspan1053" /></textPath></text>
        <text
           id="text1061"
           y="271.87677"
           x="130.98328"
           style="font-style:italic;font-variant:normal;font-weight:bold;font-stretch:normal;font-size:31.02449608px;line-height:1.25;font-family:sans-serif;-inkscape-font-specification:'sans-serif, Bold Italic';font-variant-ligatures:normal;font-variant-caps:normal;font-variant-numeric:normal;font-feature-settings:normal;text-align:start;letter-spacing:0px;word-spacing:0px;writing-mode:lr-tb;text-anchor:start;fill:#806600;fill-opacity:1;stroke:none;stroke-width:0.62881225"
           xml:space="preserve"><tspan
             style="font-style:italic;font-variant:normal;font-weight:bold;font-stretch:normal;font-size:31.02449608px;font-family:sans-serif;-inkscape-font-specification:'sans-serif, Bold Italic';font-variant-ligatures:normal;font-variant-caps:normal;font-variant-numeric:normal;font-feature-settings:normal;text-align:start;writing-mode:lr-tb;text-anchor:start;fill:#806600;stroke-width:0.62881225"
             y="271.87677"
             x="130.98328"
             id="tspan1059"
             sodipodi:role="line">1</tspan></text>
      </g>
    </g>
    <g
       id="g1548"
       transform="translate(19.113322,1.4990841)"
       inkscape:export-xdpi="55.042007"
       inkscape:export-ydpi="55.042007">
      <path
         inkscape:connector-curvature="0"
         id="path1544"
         d="m 431.02522,140.39866 -160.45209,0.049 -0.0212,8.10952 c -0.0193,7.35699 -0.0364,8.13923 -0.18496,8.42955 -0.66711,1.30392 -2.19868,1.99792 -3.83624,1.73831 -1.11375,-0.17656 -1.90155,-0.61738 -3.01487,-1.68699 -0.26954,-0.25897 -0.77581,-0.61321 -1.12503,-0.7872 -0.59456,-0.29623 -0.70057,-0.31634 -1.66724,-0.31634 -0.96528,0 -1.0742,0.0206 -1.67726,0.31695 -0.71158,0.34971 -1.45044,1.05908 -1.89598,1.82034 -0.87094,1.48808 -1.23564,4.00707 -0.8968,6.19424 0.24975,1.61206 0.76723,2.79825 1.61942,3.71205 0.89328,0.95786 1.73067,1.28972 3.06275,1.21376 1.06914,-0.061 1.80979,-0.39412 2.64361,-1.18916 1.07003,-1.02028 1.87278,-1.45729 2.99744,-1.63179 1.61795,-0.25103 3.12472,0.4432 3.79189,1.74708 0.15128,0.29565 0.16538,1.01365 0.16486,8.39625 -3.7e-4,7.21224 0.0157,8.07919 0.15183,8.13144 l 160.33988,0.0617 z"
         style="fill:#cccccc;stroke-width:1"
         sodipodi:nodetypes="ccscsccsccsssscccccc"
         inkscape:export-xdpi="45.029007"
         inkscape:export-ydpi="45.029007" />
      <path
         inkscape:export-ydpi="45.029007"
         inkscape:export-xdpi="45.029007"
         sodipodi:nodetypes="ccscsccsccsssscccccc"
         style="fill:#ffe680;stroke:#806600;stroke-width:1"
         d="m 429.59532,139.0561 -160.45209,0.049 -0.0212,8.10952 c -0.0193,7.35699 -0.0364,8.13923 -0.18496,8.42955 -0.66711,1.30392 -2.19868,1.99792 -3.83624,1.73831 -1.11375,-0.17656 -1.90155,-0.61738 -3.01487,-1.68699 -0.26954,-0.25897 -0.77581,-0.61321 -1.12503,-0.7872 -0.59456,-0.29623 -0.70057,-0.31634 -1.66724,-0.31634 -0.96528,0 -1.0742,0.0206 -1.67726,0.31695 -0.71158,0.34971 -1.45044,1.05908 -1.89598,1.82034 -0.87094,1.48808 -1.23564,4.00707 -0.8968,6.19424 0.24975,1.61206 0.76723,2.79825 1.61942,3.71205 0.89328,0.95786 1.73067,1.28972 3.06275,1.21376 1.06914,-0.061 1.80979,-0.39412 2.64361,-1.18916 1.07003,-1.02028 1.87278,-1.45729 2.99744,-1.63179 1.61795,-0.25103 3.12472,0.4432 3.79189,1.74708 0.15128,0.29565 0.16538,1.01365 0.16486,8.39625 -3.7e-4,7.21224 0.0157,8.07919 0.15183,8.13144 l 160.33988,0.0617 z"
         id="path836"
         inkscape:connector-curvature="0" />
    </g>
    <g
       id="g1558"
       inkscape:export-xdpi="55.042007"
       inkscape:export-ydpi="55.042007">
      <path
         style="fill:#cccccc;stroke:none;stroke-width:1"
         d="m 268.48072,140.16511 -45.79827,0.005 c 6e-5,44.30013 0,88.60025 -1.9e-4,132.90038 l 45.79846,-9.8e-4 -3.9e-4,-7.57189 c -3.9e-4,-7.32666 -0.006,-7.5821 -0.19087,-7.88451 -0.22014,-0.36105 -0.67873,-0.52691 -1.24743,-0.45104 -0.53906,0.0719 -0.77791,0.21889 -1.80721,1.11227 -1.45898,1.26633 -2.37276,1.65178 -4.10546,1.73139 -1.31628,0.0605 -2.0088,-0.0755 -3.08757,-0.60629 -2.69237,-1.3246 -4.26153,-4.4828 -4.26302,-8.58002 -0.001,-4.2909 1.95905,-7.66426 5.08182,-8.74351 0.88258,-0.30504 2.99995,-0.32703 3.83706,-0.0398 0.93738,0.3216 1.594,0.70607 2.38766,1.39771 1.0586,0.92253 1.36816,1.12605 1.85143,1.21776 0.60771,0.11532 1.11924,-0.0469 1.35215,-0.42882 0.18522,-0.30378 0.19108,-0.5503 0.19144,-7.88549 5.9e-4,-5.04658 2.9e-4,-10.09317 0,-15.13975 -3.9e-4,-7.32666 -0.006,-7.58211 -0.19087,-7.88452 -0.22014,-0.36104 -0.67873,-0.52691 -1.24743,-0.45104 -0.53906,0.0719 -0.77791,0.21889 -1.80721,1.11228 -1.45898,1.26632 -2.37276,1.65158 -4.10546,1.7312 -1.31628,0.0605 -2.0088,-0.0754 -3.08757,-0.6061 -2.69237,-1.32461 -4.26153,-4.48281 -4.26302,-8.58002 -0.001,-4.2909 1.95905,-7.66426 5.08182,-8.74352 0.88258,-0.30503 2.99995,-0.32702 3.83706,-0.0398 0.93738,0.32161 1.59419,0.70588 2.38785,1.39753 1.05861,0.92253 1.36797,1.12624 1.85124,1.21795 0.60771,0.11532 1.11924,-0.0469 1.35215,-0.42883 0.18522,-0.30378 0.19108,-0.55029 0.19144,-7.88547 5.9e-4,-5.00186 1.9e-4,-10.59185 0,-15.13996 -3.9e-4,-7.32665 -0.006,-7.5819 -0.19087,-7.88433 -0.22014,-0.36104 -0.67873,-0.5269 -1.24743,-0.45103 -0.53906,0.0719 -0.77791,0.21889 -1.80721,1.11227 -1.45898,1.26633 -2.37276,1.6516 -4.10546,1.73121 -1.31628,0.0605 -2.0088,-0.0754 -3.08757,-0.60611 -2.69237,-1.3246 -4.26153,-4.48299 -4.26302,-8.58021 -0.001,-4.29091 1.95905,-7.66407 5.08182,-8.74333 0.88258,-0.30502 2.99995,-0.32701 3.83706,-0.0398 0.93738,0.32161 1.59419,0.70588 2.38785,1.39752 1.05861,0.92254 1.36797,1.12625 1.85124,1.21795 0.60771,0.11532 1.11924,-0.0471 1.35215,-0.42902 0.18522,-0.30377 0.19108,-0.55029 0.19144,-7.88547 z"
         id="path1542"
         inkscape:connector-curvature="0"
         sodipodi:nodetypes="ccccsccsccccccccccccsccccscccccccsccccsccccc" />
      <path
         sodipodi:nodetypes="ccccsccsccccccccccccsccccscccccccsccccsccccc"
         inkscape:connector-curvature="0"
         id="path834"
         d="m 267.05082,138.82255 -45.79827,0.005 c 6e-5,44.30013 0,88.60025 -1.9e-4,132.90038 l 45.79846,-9.8e-4 -3.9e-4,-7.57189 c -3.9e-4,-7.32666 -0.006,-7.5821 -0.19087,-7.88451 -0.22014,-0.36105 -0.67873,-0.52691 -1.24743,-0.45104 -0.53906,0.0719 -0.77791,0.21889 -1.80721,1.11227 -1.45898,1.26633 -2.37276,1.65178 -4.10546,1.73139 -1.31628,0.0605 -2.0088,-0.0755 -3.08757,-0.60629 -2.69237,-1.3246 -4.26153,-4.4828 -4.26302,-8.58002 -0.001,-4.2909 1.95905,-7.66426 5.08182,-8.74351 0.88258,-0.30504 2.99995,-0.32703 3.83706,-0.0398 0.93738,0.3216 1.594,0.70607 2.38766,1.39771 1.0586,0.92253 1.36816,1.12605 1.85143,1.21776 0.60771,0.11532 1.11924,-0.0469 1.35215,-0.42882 0.18522,-0.30378 0.19108,-0.5503 0.19144,-7.88549 5.9e-4,-5.04658 2.9e-4,-10.09317 0,-15.13975 -3.9e-4,-7.32666 -0.006,-7.58211 -0.19087,-7.88452 -0.22014,-0.36104 -0.67873,-0.52691 -1.24743,-0.45104 -0.53906,0.0719 -0.77791,0.21889 -1.80721,1.11228 -1.45898,1.26632 -2.37276,1.65158 -4.10546,1.7312 -1.31628,0.0605 -2.0088,-0.0754 -3.08757,-0.6061 -2.69237,-1.32461 -4.26153,-4.48281 -4.26302,-8.58002 -0.001,-4.2909 1.95905,-7.66426 5.08182,-8.74352 0.88258,-0.30503 2.99995,-0.32702 3.83706,-0.0398 0.93738,0.32161 1.59419,0.70588 2.38785,1.39753 1.05861,0.92253 1.36797,1.12624 1.85124,1.21795 0.60771,0.11532 1.11924,-0.0469 1.35215,-0.42883 0.18522,-0.30378 0.19108,-0.55029 0.19144,-7.88547 5.9e-4,-5.00186 1.9e-4,-10.59185 0,-15.13996 -3.9e-4,-7.32665 -0.006,-7.5819 -0.19087,-7.88433 -0.22014,-0.36104 -0.67873,-0.5269 -1.24743,-0.45103 -0.53906,0.0719 -0.77791,0.21889 -1.80721,1.11227 -1.45898,1.26633 -2.37276,1.6516 -4.10546,1.73121 -1.31628,0.0605 -2.0088,-0.0754 -3.08757,-0.60611 -2.69237,-1.3246 -4.26153,-4.48299 -4.26302,-8.58021 -0.001,-4.29091 1.95905,-7.66407 5.08182,-8.74333 0.88258,-0.30502 2.99995,-0.32701 3.83706,-0.0398 0.93738,0.32161 1.59419,0.70588 2.38785,1.39752 1.05861,0.92254 1.36797,1.12625 1.85124,1.21795 0.60771,0.11532 1.11924,-0.0471 1.35215,-0.42902 0.18522,-0.30377 0.19108,-0.55029 0.19144,-7.88547 z"
         style="fill:#c8b7b7;stroke-width:1;stroke:#483737" />
      <text
         xml:space="preserve"
         style="font-style:normal;font-variant:normal;font-weight:bold;font-stretch:normal;font-size:17.2394104px;line-height:1.25;font-family:'DejaVu Sans Mono';-inkscape-font-specification:'DejaVu Sans Mono, Bold';font-variant-ligatures:normal;font-variant-caps:normal;font-variant-numeric:normal;font-feature-settings:normal;text-align:start;letter-spacing:0px;word-spacing:0px;writing-mode:lr-tb;text-anchor:start;fill:#241c1c;fill-opacity:1;stroke:none;stroke-width:0.26458332;"
         x="234.62495"
         y="167.60524"
         id="text846"><tspan
           sodipodi:role="line"
           id="tspan844"
           x="234.62495"
           y="167.60524"
           style="font-style:normal;font-variant:normal;font-weight:bold;font-stretch:normal;font-size:17.2394104px;font-family:'DejaVu Sans Mono';-inkscape-font-specification:'DejaVu Sans Mono, Bold';font-variant-ligatures:normal;font-variant-caps:normal;font-variant-numeric:normal;font-feature-settings:normal;text-align:start;writing-mode:lr-tb;text-anchor:start;stroke-width:0.26458332;stroke:none;fill:#241c1c;">1</tspan></text>
      <text
         id="text873"
         y="211.16719"
         x="234.62495"
         style="font-style:normal;font-variant:normal;font-weight:bold;font-stretch:normal;font-size:17.2394104px;line-height:1.25;font-family:'DejaVu Sans Mono';-inkscape-font-specification:'DejaVu Sans Mono, Bold';font-variant-ligatures:normal;font-variant-caps:normal;font-variant-numeric:normal;font-feature-settings:normal;text-align:start;letter-spacing:0px;word-spacing:0px;writing-mode:lr-tb;text-anchor:start;fill:#241c1c;fill-opacity:1;stroke:none;stroke-width:0.26458332;"
         xml:space="preserve"><tspan
           style="font-style:normal;font-variant:normal;font-weight:bold;font-stretch:normal;font-size:17.2394104px;font-family:'DejaVu Sans Mono';-inkscape-font-specification:'DejaVu Sans Mono, Bold';font-variant-ligatures:normal;font-variant-caps:normal;font-variant-numeric:normal;font-feature-settings:normal;text-align:start;writing-mode:lr-tb;text-anchor:start;stroke-width:0.26458332;stroke:none;fill:#241c1c;"
           y="211.16719"
           x="234.62495"
           id="tspan871"
           sodipodi:role="line">2</tspan></text>
      <text
         xml:space="preserve"
         style="font-style:normal;font-variant:normal;font-weight:bold;font-stretch:normal;font-size:17.2394104px;line-height:1.25;font-family:'DejaVu Sans Mono';-inkscape-font-specification:'DejaVu Sans Mono, Bold';font-variant-ligatures:normal;font-variant-caps:normal;font-variant-numeric:normal;font-feature-settings:normal;text-align:start;letter-spacing:0px;word-spacing:0px;writing-mode:lr-tb;text-anchor:start;fill:#241c1c;fill-opacity:1;stroke:none;stroke-width:0.26458332;"
         x="234.62495"
         y="257.3746"
         id="text877"><tspan
           sodipodi:role="line"
           id="tspan875"
           x="234.62495"
           y="257.3746"
           style="font-style:normal;font-variant:normal;font-weight:bold;font-stretch:normal;font-size:17.2394104px;font-family:'DejaVu Sans Mono';-inkscape-font-specification:'DejaVu Sans Mono, Bold';font-variant-ligatures:normal;font-variant-caps:normal;font-variant-numeric:normal;font-feature-settings:normal;text-align:start;writing-mode:lr-tb;text-anchor:start;stroke-width:0.26458332;stroke:none;fill:#241c1c;">3</tspan></text>
    </g>
  </g>
</svg>
